<svg xmlns="http://www.w3.org/2000/svg" width="1920" height="1080" viewBox="0 0 1920 1080"><defs><linearGradient id="sky" x2="0" y2="1"><stop stop-color="#354954"/><stop offset="1" stop-color="#b6b5a2"/></linearGradient><radialGradient id="glow"><stop stop-color="#ffe3a3" stop-opacity=".4"/><stop offset="1" stop-color="#ffe3a3" stop-opacity="0"/></radialGradient></defs><rect x="0" y="0" width="1920" height="1080" rx="0" fill="#273e3d"/><rect x="600" y="90" width="710" height="670" rx="350" fill="#172f33"/><rect x="625" y="115" width="660" height="620" rx="320" fill="url(#sky)"/><circle cx="1090" cy="280" r="65" fill="#ddd7ae"/><path d="M625 560L730 390 830 500 930 360 1040 540 1140 430 1285 600V735H625Z" fill="#526c69"/><rect x="40" y="70" width="500" height="760" rx="8" fill="#4d3f33"/><rect x="60" y="145" width="18" height="100" rx="2" fill="#7b8f7c"/><rect x="86" y="126" width="19" height="119" rx="2" fill="#b69a6a"/><rect x="112" y="107" width="20" height="138" rx="2" fill="#79655e"/><rect x="138" y="88" width="21" height="157" rx="2" fill="#596f70"/><rect x="164" y="129" width="18" height="116" rx="2" fill="#c1ad8a"/><rect x="190" y="110" width="19" height="135" rx="2" fill="#7b8f7c"/><rect x="216" y="91" width="20" height="154" rx="2" fill="#b69a6a"/><rect x="242" y="132" width="21" height="113" rx="2" fill="#79655e"/><rect x="268" y="113" width="18" height="132" rx="2" fill="#596f70"/><rect x="294" y="94" width="19" height="151" rx="2" fill="#c1ad8a"/><rect x="320" y="135" width="20" height="110" rx="2" fill="#7b8f7c"/><rect x="346" y="116" width="21" height="129" rx="2" fill="#b69a6a"/><rect x="372" y="97" width="18" height="148" rx="2" fill="#79655e"/><rect x="398" y="138" width="19" height="107" rx="2" fill="#596f70"/><rect x="424" y="119" width="20" height="126" rx="2" fill="#c1ad8a"/><rect x="450" y="100" width="21" height="145" rx="2" fill="#7b8f7c"/><rect x="476" y="141" width="18" height="104" rx="2" fill="#b69a6a"/><rect x="502" y="122" width="19" height="123" rx="2" fill="#79655e"/><rect x="40" y="245" width="500" height="16" rx="0" fill="#ab8156"/><rect x="60" y="288" width="18" height="137" rx="2" fill="#7b8f7c"/><rect x="86" y="269" width="19" height="156" rx="2" fill="#b69a6a"/><rect x="112" y="310" width="20" height="115" rx="2" fill="#79655e"/><rect x="138" y="291" width="21" height="134" rx="2" fill="#596f70"/><rect x="164" y="272" width="18" height="153" rx="2" fill="#c1ad8a"/><rect x="190" y="313" width="19" height="112" rx="2" fill="#7b8f7c"/><rect x="216" y="294" width="20" height="131" rx="2" fill="#b69a6a"/><rect x="242" y="275" width="21" height="150" rx="2" fill="#79655e"/><rect x="268" y="316" width="18" height="109" rx="2" fill="#596f70"/><rect x="294" y="297" width="19" height="128" rx="2" fill="#c1ad8a"/><rect x="320" y="278" width="20" height="147" rx="2" fill="#7b8f7c"/><rect x="346" y="319" width="21" height="106" rx="2" fill="#b69a6a"/><rect x="372" y="300" width="18" height="125" rx="2" fill="#79655e"/><rect x="398" y="281" width="19" height="144" rx="2" fill="#596f70"/><rect x="424" y="322" width="20" height="103" rx="2" fill="#c1ad8a"/><rect x="450" y="303" width="21" height="122" rx="2" fill="#7b8f7c"/><rect x="476" y="284" width="18" height="141" rx="2" fill="#b69a6a"/><rect x="502" y="325" width="19" height="100" rx="2" fill="#79655e"/><rect x="40" y="425" width="500" height="16" rx="0" fill="#ab8156"/><rect x="60" y="491" width="18" height="114" rx="2" fill="#7b8f7c"/><rect x="86" y="472" width="19" height="133" rx="2" fill="#b69a6a"/><rect x="112" y="453" width="20" height="152" rx="2" fill="#79655e"/><rect x="138" y="494" width="21" height="111" rx="2" fill="#596f70"/><rect x="164" y="475" width="18" height="130" rx="2" fill="#c1ad8a"/><rect x="190" y="456" width="19" height="149" rx="2" fill="#7b8f7c"/><rect x="216" y="497" width="20" height="108" rx="2" fill="#b69a6a"/><rect x="242" y="478" width="21" height="127" rx="2" fill="#79655e"/><rect x="268" y="459" width="18" height="146" rx="2" fill="#596f70"/><rect x="294" y="500" width="19" height="105" rx="2" fill="#c1ad8a"/><rect x="320" y="481" width="20" height="124" rx="2" fill="#7b8f7c"/><rect x="346" y="462" width="21" height="143" rx="2" fill="#b69a6a"/><rect x="372" y="503" width="18" height="102" rx="2" fill="#79655e"/><rect x="398" y="484" width="19" height="121" rx="2" fill="#596f70"/><rect x="424" y="465" width="20" height="140" rx="2" fill="#c1ad8a"/><rect x="450" y="446" width="21" height="159" rx="2" fill="#7b8f7c"/><rect x="476" y="487" width="18" height="118" rx="2" fill="#b69a6a"/><rect x="502" y="468" width="19" height="137" rx="2" fill="#79655e"/><rect x="40" y="605" width="500" height="16" rx="0" fill="#ab8156"/><rect x="60" y="634" width="18" height="151" rx="2" fill="#7b8f7c"/><rect x="86" y="675" width="19" height="110" rx="2" fill="#b69a6a"/><rect x="112" y="656" width="20" height="129" rx="2" fill="#79655e"/><rect x="138" y="637" width="21" height="148" rx="2" fill="#596f70"/><rect x="164" y="678" width="18" height="107" rx="2" fill="#c1ad8a"/><rect x="190" y="659" width="19" height="126" rx="2" fill="#7b8f7c"/><rect x="216" y="640" width="20" height="145" rx="2" fill="#b69a6a"/><rect x="242" y="681" width="21" height="104" rx="2" fill="#79655e"/><rect x="268" y="662" width="18" height="123" rx="2" fill="#596f70"/><rect x="294" y="643" width="19" height="142" rx="2" fill="#c1ad8a"/><rect x="320" y="684" width="20" height="101" rx="2" fill="#7b8f7c"/><rect x="346" y="665" width="21" height="120" rx="2" fill="#b69a6a"/><rect x="372" y="646" width="18" height="139" rx="2" fill="#79655e"/><rect x="398" y="627" width="19" height="158" rx="2" fill="#596f70"/><rect x="424" y="668" width="20" height="117" rx="2" fill="#c1ad8a"/><rect x="450" y="649" width="21" height="136" rx="2" fill="#7b8f7c"/><rect x="476" y="630" width="18" height="155" rx="2" fill="#b69a6a"/><rect x="502" y="671" width="19" height="114" rx="2" fill="#79655e"/><rect x="40" y="785" width="500" height="16" rx="0" fill="#ab8156"/><rect x="1370" y="70" width="500" height="760" rx="8" fill="#4d3f33"/><rect x="1390" y="145" width="18" height="100" rx="2" fill="#7b8f7c"/><rect x="1416" y="126" width="19" height="119" rx="2" fill="#b69a6a"/><rect x="1442" y="107" width="20" height="138" rx="2" fill="#79655e"/><rect x="1468" y="88" width="21" height="157" rx="2" fill="#596f70"/><rect x="1494" y="129" width="18" height="116" rx="2" fill="#c1ad8a"/><rect x="1520" y="110" width="19" height="135" rx="2" fill="#7b8f7c"/><rect x="1546" y="91" width="20" height="154" rx="2" fill="#b69a6a"/><rect x="1572" y="132" width="21" height="113" rx="2" fill="#79655e"/><rect x="1598" y="113" width="18" height="132" rx="2" fill="#596f70"/><rect x="1624" y="94" width="19" height="151" rx="2" fill="#c1ad8a"/><rect x="1650" y="135" width="20" height="110" rx="2" fill="#7b8f7c"/><rect x="1676" y="116" width="21" height="129" rx="2" fill="#b69a6a"/><rect x="1702" y="97" width="18" height="148" rx="2" fill="#79655e"/><rect x="1728" y="138" width="19" height="107" rx="2" fill="#596f70"/><rect x="1754" y="119" width="20" height="126" rx="2" fill="#c1ad8a"/><rect x="1780" y="100" width="21" height="145" rx="2" fill="#7b8f7c"/><rect x="1806" y="141" width="18" height="104" rx="2" fill="#b69a6a"/><rect x="1832" y="122" width="19" height="123" rx="2" fill="#79655e"/><rect x="1370" y="245" width="500" height="16" rx="0" fill="#ab8156"/><rect x="1390" y="288" width="18" height="137" rx="2" fill="#7b8f7c"/><rect x="1416" y="269" width="19" height="156" rx="2" fill="#b69a6a"/><rect x="1442" y="310" width="20" height="115" rx="2" fill="#79655e"/><rect x="1468" y="291" width="21" height="134" rx="2" fill="#596f70"/><rect x="1494" y="272" width="18" height="153" rx="2" fill="#c1ad8a"/><rect x="1520" y="313" width="19" height="112" rx="2" fill="#7b8f7c"/><rect x="1546" y="294" width="20" height="131" rx="2" fill="#b69a6a"/><rect x="1572" y="275" width="21" height="150" rx="2" fill="#79655e"/><rect x="1598" y="316" width="18" height="109" rx="2" fill="#596f70"/><rect x="1624" y="297" width="19" height="128" rx="2" fill="#c1ad8a"/><rect x="1650" y="278" width="20" height="147" rx="2" fill="#7b8f7c"/><rect x="1676" y="319" width="21" height="106" rx="2" fill="#b69a6a"/><rect x="1702" y="300" width="18" height="125" rx="2" fill="#79655e"/><rect x="1728" y="281" width="19" height="144" rx="2" fill="#596f70"/><rect x="1754" y="322" width="20" height="103" rx="2" fill="#c1ad8a"/><rect x="1780" y="303" width="21" height="122" rx="2" fill="#7b8f7c"/><rect x="1806" y="284" width="18" height="141" rx="2" fill="#b69a6a"/><rect x="1832" y="325" width="19" height="100" rx="2" fill="#79655e"/><rect x="1370" y="425" width="500" height="16" rx="0" fill="#ab8156"/><rect x="1390" y="491" width="18" height="114" rx="2" fill="#7b8f7c"/><rect x="1416" y="472" width="19" height="133" rx="2" fill="#b69a6a"/><rect x="1442" y="453" width="20" height="152" rx="2" fill="#79655e"/><rect x="1468" y="494" width="21" height="111" rx="2" fill="#596f70"/><rect x="1494" y="475" width="18" height="130" rx="2" fill="#c1ad8a"/><rect x="1520" y="456" width="19" height="149" rx="2" fill="#7b8f7c"/><rect x="1546" y="497" width="20" height="108" rx="2" fill="#b69a6a"/><rect x="1572" y="478" width="21" height="127" rx="2" fill="#79655e"/><rect x="1598" y="459" width="18" height="146" rx="2" fill="#596f70"/><rect x="1624" y="500" width="19" height="105" rx="2" fill="#c1ad8a"/><rect x="1650" y="481" width="20" height="124" rx="2" fill="#7b8f7c"/><rect x="1676" y="462" width="21" height="143" rx="2" fill="#b69a6a"/><rect x="1702" y="503" width="18" height="102" rx="2" fill="#79655e"/><rect x="1728" y="484" width="19" height="121" rx="2" fill="#596f70"/><rect x="1754" y="465" width="20" height="140" rx="2" fill="#c1ad8a"/><rect x="1780" y="446" width="21" height="159" rx="2" fill="#7b8f7c"/><rect x="1806" y="487" width="18" height="118" rx="2" fill="#b69a6a"/><rect x="1832" y="468" width="19" height="137" rx="2" fill="#79655e"/><rect x="1370" y="605" width="500" height="16" rx="0" fill="#ab8156"/><rect x="1390" y="634" width="18" height="151" rx="2" fill="#7b8f7c"/><rect x="1416" y="675" width="19" height="110" rx="2" fill="#b69a6a"/><rect x="1442" y="656" width="20" height="129" rx="2" fill="#79655e"/><rect x="1468" y="637" width="21" height="148" rx="2" fill="#596f70"/><rect x="1494" y="678" width="18" height="107" rx="2" fill="#c1ad8a"/><rect x="1520" y="659" width="19" height="126" rx="2" fill="#7b8f7c"/><rect x="1546" y="640" width="20" height="145" rx="2" fill="#b69a6a"/><rect x="1572" y="681" width="21" height="104" rx="2" fill="#79655e"/><rect x="1598" y="662" width="18" height="123" rx="2" fill="#596f70"/><rect x="1624" y="643" width="19" height="142" rx="2" fill="#c1ad8a"/><rect x="1650" y="684" width="20" height="101" rx="2" fill="#7b8f7c"/><rect x="1676" y="665" width="21" height="120" rx="2" fill="#b69a6a"/><rect x="1702" y="646" width="18" height="139" rx="2" fill="#79655e"/><rect x="1728" y="627" width="19" height="158" rx="2" fill="#596f70"/><rect x="1754" y="668" width="20" height="117" rx="2" fill="#c1ad8a"/><rect x="1780" y="649" width="21" height="136" rx="2" fill="#7b8f7c"/><rect x="1806" y="630" width="18" height="155" rx="2" fill="#b69a6a"/><rect x="1832" y="671" width="19" height="114" rx="2" fill="#79655e"/><rect x="1370" y="785" width="500" height="16" rx="0" fill="#ab8156"/><rect x="0" y="860" width="1920" height="220" rx="0" fill="#443b34"/><path d="M300 925L1500 895 1720 1080H110Z" fill="#676453"/><rect x="480" y="800" width="960" height="42" rx="12" fill="#a78055"/><rect x="530" y="842" width="35" height="238" rx="0" fill="#433b31"/><rect x="1350" y="842" width="35" height="238" rx="0" fill="#433b31"/><circle cx="1120" cy="720" r="210" fill="url(#glow)"/><rect x="1114" y="620" width="12" height="178" rx="0" fill="#c6a77a"/><path d="M1060 620L1180 620 1150 560H1090Z" fill="#d9b277"/><path d="M760 780Q850 740 940 780V810Q850 778 760 810Z" fill="#e0d5b6"/><g transform="translate(370 825) scale(1.2)"><path d="M-30 0H30L23 62H-23Z" fill="#b78466"/><path d="M0 0V-150M0-50Q-70-55-60-100Q-5-110 0-50M0-85Q65-90 60-135Q5-140 0-85M0-110Q-40-135-20-178Q20-160 0-110" stroke="#4e7160" stroke-width="8" fill="#527d68"/></g></svg>