<svg xmlns="http://www.w3.org/2000/svg" width="1920" height="1080" viewBox="0 0 1920 1080"><defs><linearGradient id="sky" x2="0" y2="1"><stop stop-color="#111f36"/><stop offset="1" stop-color="#40576d"/></linearGradient><radialGradient id="glow"><stop stop-color="#ffe3a3" stop-opacity=".4"/><stop offset="1" stop-color="#ffe3a3" stop-opacity="0"/></radialGradient></defs><rect x="0" y="0" width="1920" height="1080" rx="0" fill="url(#sky)"/><circle cx="0" cy="0" r="1" fill="#e3d7b9"/><circle cx="317" cy="191" r="2" fill="#a6b7ce"/><circle cx="634" cy="382" r="1" fill="#a6b7ce"/><circle cx="951" cy="573" r="2" fill="#e3d7b9"/><circle cx="1268" cy="44" r="1" fill="#a6b7ce"/><circle cx="1585" cy="235" r="2" fill="#a6b7ce"/><circle cx="1902" cy="426" r="1" fill="#e3d7b9"/><circle cx="299" cy="617" r="2" fill="#a6b7ce"/><circle cx="616" cy="88" r="1" fill="#a6b7ce"/><circle cx="933" cy="279" r="2" fill="#e3d7b9"/><circle cx="1250" cy="470" r="1" fill="#a6b7ce"/><circle cx="1567" cy="661" r="2" fill="#a6b7ce"/><circle cx="1884" cy="132" r="1" fill="#e3d7b9"/><circle cx="281" cy="323" r="2" fill="#a6b7ce"/><circle cx="598" cy="514" r="1" fill="#a6b7ce"/><circle cx="915" cy="705" r="2" fill="#e3d7b9"/><circle cx="1232" cy="176" r="1" fill="#a6b7ce"/><circle cx="1549" cy="367" r="2" fill="#a6b7ce"/><circle cx="1866" cy="558" r="1" fill="#e3d7b9"/><circle cx="263" cy="29" r="2" fill="#a6b7ce"/><circle cx="580" cy="220" r="1" fill="#a6b7ce"/><circle cx="897" cy="411" r="2" fill="#e3d7b9"/><circle cx="1214" cy="602" r="1" fill="#a6b7ce"/><circle cx="1531" cy="73" r="2" fill="#a6b7ce"/><circle cx="1848" cy="264" r="1" fill="#e3d7b9"/><circle cx="245" cy="455" r="2" fill="#a6b7ce"/><circle cx="562" cy="646" r="1" fill="#a6b7ce"/><circle cx="879" cy="117" r="2" fill="#e3d7b9"/><circle cx="1196" cy="308" r="1" fill="#a6b7ce"/><circle cx="1513" cy="499" r="2" fill="#a6b7ce"/><circle cx="1830" cy="690" r="1" fill="#e3d7b9"/><circle cx="227" cy="161" r="2" fill="#a6b7ce"/><circle cx="544" cy="352" r="1" fill="#a6b7ce"/><circle cx="861" cy="543" r="2" fill="#e3d7b9"/><circle cx="1178" cy="14" r="1" fill="#a6b7ce"/><circle cx="1495" cy="205" r="2" fill="#a6b7ce"/><circle cx="1812" cy="396" r="1" fill="#e3d7b9"/><circle cx="209" cy="587" r="2" fill="#a6b7ce"/><circle cx="526" cy="58" r="1" fill="#a6b7ce"/><circle cx="843" cy="249" r="2" fill="#e3d7b9"/><circle cx="1160" cy="440" r="1" fill="#a6b7ce"/><circle cx="1477" cy="631" r="2" fill="#a6b7ce"/><circle cx="1794" cy="102" r="1" fill="#e3d7b9"/><circle cx="191" cy="293" r="2" fill="#a6b7ce"/><circle cx="508" cy="484" r="1" fill="#a6b7ce"/><circle cx="825" cy="675" r="2" fill="#e3d7b9"/><circle cx="1142" cy="146" r="1" fill="#a6b7ce"/><circle cx="1459" cy="337" r="2" fill="#a6b7ce"/><circle cx="1776" cy="528" r="1" fill="#e3d7b9"/><circle cx="173" cy="719" r="2" fill="#a6b7ce"/><circle cx="490" cy="190" r="1" fill="#a6b7ce"/><circle cx="807" cy="381" r="2" fill="#e3d7b9"/><circle cx="1124" cy="572" r="1" fill="#a6b7ce"/><circle cx="1441" cy="43" r="2" fill="#a6b7ce"/><circle cx="1758" cy="234" r="1" fill="#e3d7b9"/><circle cx="155" cy="425" r="2" fill="#a6b7ce"/><circle cx="472" cy="616" r="1" fill="#a6b7ce"/><circle cx="789" cy="87" r="2" fill="#e3d7b9"/><circle cx="1106" cy="278" r="1" fill="#a6b7ce"/><circle cx="1423" cy="469" r="2" fill="#a6b7ce"/><circle cx="1740" cy="660" r="1" fill="#e3d7b9"/><circle cx="137" cy="131" r="2" fill="#a6b7ce"/><circle cx="454" cy="322" r="1" fill="#a6b7ce"/><circle cx="771" cy="513" r="2" fill="#e3d7b9"/><circle cx="1088" cy="704" r="1" fill="#a6b7ce"/><circle cx="1405" cy="175" r="2" fill="#a6b7ce"/><circle cx="1722" cy="366" r="1" fill="#e3d7b9"/><circle cx="119" cy="557" r="2" fill="#a6b7ce"/><circle cx="436" cy="28" r="1" fill="#a6b7ce"/><circle cx="753" cy="219" r="2" fill="#e3d7b9"/><circle cx="1070" cy="410" r="1" fill="#a6b7ce"/><circle cx="1387" cy="601" r="2" fill="#a6b7ce"/><circle cx="1704" cy="72" r="1" fill="#e3d7b9"/><circle cx="101" cy="263" r="2" fill="#a6b7ce"/><circle cx="418" cy="454" r="1" fill="#a6b7ce"/><circle cx="735" cy="645" r="2" fill="#e3d7b9"/><circle cx="1052" cy="116" r="1" fill="#a6b7ce"/><circle cx="1369" cy="307" r="2" fill="#a6b7ce"/><circle cx="1686" cy="498" r="1" fill="#e3d7b9"/><circle cx="83" cy="689" r="2" fill="#a6b7ce"/><circle cx="400" cy="160" r="1" fill="#a6b7ce"/><circle cx="717" cy="351" r="2" fill="#e3d7b9"/><circle cx="1034" cy="542" r="1" fill="#a6b7ce"/><circle cx="1351" cy="13" r="2" fill="#a6b7ce"/><circle cx="1668" cy="204" r="1" fill="#e3d7b9"/><circle cx="65" cy="395" r="2" fill="#a6b7ce"/><circle cx="382" cy="586" r="1" fill="#a6b7ce"/><circle cx="699" cy="57" r="2" fill="#e3d7b9"/><circle cx="1016" cy="248" r="1" fill="#a6b7ce"/><circle cx="1333" cy="439" r="2" fill="#a6b7ce"/><circle cx="1650" cy="630" r="1" fill="#e3d7b9"/><circle cx="47" cy="101" r="2" fill="#a6b7ce"/><circle cx="364" cy="292" r="1" fill="#a6b7ce"/><circle cx="681" cy="483" r="2" fill="#e3d7b9"/><circle cx="998" cy="674" r="1" fill="#a6b7ce"/><circle cx="1315" cy="145" r="2" fill="#a6b7ce"/><circle cx="1632" cy="336" r="1" fill="#e3d7b9"/><circle cx="29" cy="527" r="2" fill="#a6b7ce"/><circle cx="346" cy="718" r="1" fill="#a6b7ce"/><circle cx="663" cy="189" r="2" fill="#e3d7b9"/><circle cx="980" cy="380" r="1" fill="#a6b7ce"/><circle cx="1297" cy="571" r="2" fill="#a6b7ce"/><circle cx="1614" cy="42" r="1" fill="#e3d7b9"/><circle cx="11" cy="233" r="2" fill="#a6b7ce"/><circle cx="328" cy="424" r="1" fill="#a6b7ce"/><circle cx="645" cy="615" r="2" fill="#e3d7b9"/><circle cx="962" cy="86" r="1" fill="#a6b7ce"/><circle cx="1279" cy="277" r="2" fill="#a6b7ce"/><circle cx="1596" cy="468" r="1" fill="#e3d7b9"/><circle cx="1913" cy="659" r="2" fill="#a6b7ce"/><circle cx="310" cy="130" r="1" fill="#a6b7ce"/><circle cx="627" cy="321" r="2" fill="#e3d7b9"/><circle cx="944" cy="512" r="1" fill="#a6b7ce"/><circle cx="1261" cy="703" r="2" fill="#a6b7ce"/><circle cx="1578" cy="174" r="1" fill="#e3d7b9"/><circle cx="1895" cy="365" r="2" fill="#a6b7ce"/><circle cx="292" cy="556" r="1" fill="#a6b7ce"/><circle cx="609" cy="27" r="2" fill="#e3d7b9"/><circle cx="926" cy="218" r="1" fill="#a6b7ce"/><circle cx="1243" cy="409" r="2" fill="#a6b7ce"/><circle cx="1270" cy="260" r="83" fill="#e5dfc8"/><circle cx="1295" cy="239" r="78" fill="#192c43"/><path d="M0 810L330 600 620 840 970 510 1260 750 1580 600 1920 820V1080H0Z" fill="#263d4d"/><path d="M0 925L520 770 1020 910 1490 820 1920 900V1080H0Z" fill="#172c36"/><rect x="0" y="980" width="1920" height="100" rx="0" fill="#162730"/><rect x="500" y="870" width="450" height="210" rx="0" fill="#435653"/><path d="M485 870A240 240 0 0 1 480 -10" fill="none"/><path d="M485 870A240 240 0 0 1 965 870Z" fill="#60716c"/><rect x="690" y="895" width="65" height="110" rx="30" fill="#d0b887"/><rect x="0" y="990" width="1920" height="14" rx="0" fill="#83908a"/></svg>